<svg xmlns="http://www.w3.org/2000/svg" width="900" height="900" viewBox="0 0 900 900">
  <defs>
    <linearGradient id="bg" x1="0" y1="0" x2="1" y2="1">
      <stop offset="0%" stop-color="#fff7fb"/>
      <stop offset="55%" stop-color="#ffe8f1"/>
      <stop offset="100%" stop-color="#fffdf7"/>
    </linearGradient>
    <filter id="shadow" x="-20%" y="-20%" width="140%" height="140%">
      <feDropShadow dx="0" dy="18" stdDeviation="20" flood-color="#d4729a" flood-opacity=".22"/>
    </filter>
  </defs>
  <rect width="900" height="900" rx="70" fill="url(#bg)"/>
  <circle cx="700" cy="170" r="92" fill="#ffd3e4" opacity=".55"/>
  <circle cx="170" cy="720" r="135" fill="#fff" opacity=".75"/>
  
  <g filter="url(#shadow)">
    <path d="M450 160 C560 270 655 410 650 555 C644 720 550 790 450 790 C350 790 256 720 250 555 C245 410 340 270 450 160Z" fill="#ffb8cc"/>
    <path d="M395 245 C470 360 520 475 500 650 C490 720 455 758 420 775 C335 752 276 680 270 555 C266 430 332 310 395 245Z" fill="#ffd3df" opacity=".42"/>
  </g>

  <text x="450" y="825" text-anchor="middle" font-family="Arial, Helvetica, sans-serif" font-size="42" font-weight="700" fill="#5a253c">Beauty Sponge</text>
</svg>