<svg xmlns="http://www.w3.org/2000/svg" width="900" height="900" viewBox="0 0 900 900">
  <defs>
    <linearGradient id="bg" x1="0" y1="0" x2="1" y2="1">
      <stop offset="0%" stop-color="#fff7fb"/>
      <stop offset="55%" stop-color="#ffe8f1"/>
      <stop offset="100%" stop-color="#fffdf7"/>
    </linearGradient>
    <filter id="shadow" x="-20%" y="-20%" width="140%" height="140%">
      <feDropShadow dx="0" dy="18" stdDeviation="20" flood-color="#d4729a" flood-opacity=".22"/>
    </filter>
  </defs>
  <rect width="900" height="900" rx="70" fill="url(#bg)"/>
  <circle cx="700" cy="170" r="92" fill="#ffd3e4" opacity=".55"/>
  <circle cx="170" cy="720" r="135" fill="#fff" opacity=".75"/>
  
  <g filter="url(#shadow)" transform="translate(0,5)">
    <rect x="365" y="160" width="170" height="80" rx="16" fill="#14151c"/>
    <path d="M330 235 L570 235 L530 615 Q520 690 450 690 Q380 690 370 615 Z" fill="#8de1dc"/>
    <path d="M360 255 L540 255 L510 610 Q502 660 450 660 Q398 660 390 610 Z" fill="#b9f5f0" opacity=".55"/>
    <rect x="382" y="630" width="136" height="88" rx="28" fill="#191922"/>
    <rect x="408" y="705" width="84" height="70" rx="22" fill="#15151c"/>
    <text x="450" y="460" text-anchor="middle" font-family="Georgia, serif" font-size="86" fill="#15151c" transform="rotate(-90 450 460)">elf</text>
  </g>

  <text x="450" y="825" text-anchor="middle" font-family="Arial, Helvetica, sans-serif" font-size="42" font-weight="700" fill="#5a253c">Primer Glow</text>
</svg>