<svg xmlns="http://www.w3.org/2000/svg" width="900" height="900" viewBox="0 0 900 900">
  <defs>
    <linearGradient id="bg" x1="0" y1="0" x2="1" y2="1">
      <stop offset="0%" stop-color="#fff7fb"/>
      <stop offset="55%" stop-color="#ffe8f1"/>
      <stop offset="100%" stop-color="#fffdf7"/>
    </linearGradient>
    <filter id="shadow" x="-20%" y="-20%" width="140%" height="140%">
      <feDropShadow dx="0" dy="18" stdDeviation="20" flood-color="#d4729a" flood-opacity=".22"/>
    </filter>
  </defs>
  <rect width="900" height="900" rx="70" fill="url(#bg)"/>
  <circle cx="700" cy="170" r="92" fill="#ffd3e4" opacity=".55"/>
  <circle cx="170" cy="720" r="135" fill="#fff" opacity=".75"/>
  
  <g filter="url(#shadow)" stroke="#c69243" stroke-width="24" fill="none" stroke-linecap="round" stroke-linejoin="round">
    <path d="M275 240 Q450 180 625 240"/>
    <path d="M285 270 Q450 320 615 270"/>
    <path d="M350 300 L260 635"/>
    <path d="M550 300 L640 635"/>
    <path d="M360 360 Q450 460 540 360"/>
    <path d="M450 320 L450 660"/>
    <rect x="205" y="620" width="125" height="180" rx="60" fill="#ffc9dd" stroke="#ffc9dd"/>
    <rect x="570" y="620" width="125" height="180" rx="60" fill="#ffc9dd" stroke="#ffc9dd"/>
    <path d="M315 250 Q450 300 585 250" stroke="#ffc9dd" stroke-width="30"/>
  </g>

  <text x="450" y="825" text-anchor="middle" font-family="Arial, Helvetica, sans-serif" font-size="42" font-weight="700" fill="#5a253c">Rizador Rose</text>
</svg>