<svg xmlns="http://www.w3.org/2000/svg" width="900" height="900" viewBox="0 0 900 900">
  <defs>
    <linearGradient id="bg" x1="0" y1="0" x2="1" y2="1">
      <stop offset="0%" stop-color="#fff7fb"/>
      <stop offset="55%" stop-color="#ffe8f1"/>
      <stop offset="100%" stop-color="#fffdf7"/>
    </linearGradient>
    <filter id="shadow" x="-20%" y="-20%" width="140%" height="140%">
      <feDropShadow dx="0" dy="18" stdDeviation="20" flood-color="#d4729a" flood-opacity=".22"/>
    </filter>
  </defs>
  <rect width="900" height="900" rx="70" fill="url(#bg)"/>
  <circle cx="700" cy="170" r="92" fill="#ffd3e4" opacity=".55"/>
  <circle cx="170" cy="720" r="135" fill="#fff" opacity=".75"/>
  
  <g filter="url(#shadow)">
    <rect x="190" y="145" width="520" height="620" rx="45" fill="#16161e"/>
    <g>
      <rect x="235" y="200" width="115" height="115" rx="20" fill="#c7a17e"/>
      <rect x="392" y="200" width="115" height="115" rx="20" fill="#6f4c3b"/>
      <rect x="549" y="200" width="115" height="115" rx="20" fill="#ffd6aa"/>
      <rect x="235" y="355" width="115" height="115" rx="20" fill="#d88258"/>
      <rect x="392" y="355" width="115" height="115" rx="20" fill="#f4b98c"/>
      <rect x="549" y="355" width="115" height="115" rx="20" fill="#9d584b"/>
      <rect x="235" y="510" width="115" height="115" rx="20" fill="#b75a55"/>
      <rect x="392" y="510" width="115" height="115" rx="20" fill="#eea19a"/>
      <rect x="549" y="510" width="115" height="115" rx="20" fill="#7e453a"/>
    </g>
    <rect x="735" y="185" width="70" height="545" rx="20" fill="#0e0e15"/>
    <text x="770" y="520" text-anchor="middle" font-family="Georgia, serif" font-size="76" fill="#ffc9a7" transform="rotate(-90 770 520)">NARS</text>
  </g>

  <text x="450" y="825" text-anchor="middle" font-family="Arial, Helvetica, sans-serif" font-size="42" font-weight="700" fill="#5a253c">Paleta Nudes</text>
</svg>